{"title":"Tinker Tailor Soldier Spy 2011 R5 XviD Ac3 Feel-Free","uid":6938903,"size":1210990509,"categoryP":"video","categoryS":"movies","magnet":"?xt=urn:btih:c7d24cb710c65648ed3e8e3959e7215b58a12348&amp;dn=Tinker+Tailor+Soldier+Spy+2011+R5+XviD+Ac3+Feel-Free&amp;tr=udp%3A%2F%2Ftracker.openbittorrent.com%3A80&amp;tr=udp%3A%2F%2Fopen.demonii.com%3A1337&amp;tr=udp%3A%2F%2Ftracker.coppersurfer.tk%3A6969&amp;tr=udp%3A%2F%2Fexodus.desync.com%3A6969","seeders":1,"leechers":0,"uploader":".BONE.","files":9,"time":1325933008,"description":"Genre:Thriller\nLanguage:English\n &lt;a href=&quot;\nhttp://www.imdb.com/title/tt1340800/&quot; rel=&quot;nofollow&quot; target=&quot;_NEW&quot;&gt;\nhttp://www.imdb.com/title/tt1340800/&lt;/a&gt;\n\nSource:DVDR5 - Lum1x Thanks!\n\nFormat : AVI\nFormat/Info : Audio Video Interleave\nFile size : 1.13 GiB\nDuration : 2h 2mn\nOverall bit rate : 1 320 Kbps\n\nVideo\nID : 0\nFormat : MPEG-4 Visual\nFormat profile : Advanced Simple@L5\nFormat settings, BVOP : Yes\nFormat settings, QPel : No\nFormat settings, GMC : No warppoints\nFormat settings, Matrix : Default (H.263)\nCodec ID : XVID\nCodec ID/Hint : XviD\nDuration : 2h 2mn\nBit rate : 863 Kbps\nWidth : 640 pixels\nHeight : 272 pixels\nDisplay aspect ratio : 2.35:1\nFrame rate : 25.000 fps\nColor space : YUV\nChroma subsampling : 4:2:0\nBit depth : 8 bits\nScan type : Progressive\nBits/(Pixel*Frame) : 0.198\nStream size : 754 MiB (65%)\nWriting library : XviD 1.2.1 (UTC 2008-12-04)\n\nAudio\nID : 1\nFormat : AC-3\nFormat/Info : Audio Coding 3\nMode extension : CM (complete main)\nCodec ID : 2000\nDuration : 2h 2mn\nBit rate mode : Constant\nBit rate : 448 Kbps\nChannel(s) : 2 channels\nChannel positions : Front: L R\nSampling rate : 48.0 KHz\nBit depth : 16 bits\nStream size : 391 MiB (34%)\nAlignment : Aligned on interleaves\nInterleave, duration : 40 ms (1.00 video frame)\nInterleave, preload duration : 512 ms\n\n\nPlot:\nIn the bleak days of the Cold War, espionage veteran George Smiley is forced from semi-retirement to uncover a Soviet agent within MI6's echelons.\n","torrent":{"xt":"urn:btih:c7d24cb710c65648ed3e8e3959e7215b58a12348","amp;dn":"Tinker+Tailor+Soldier+Spy+2011+R5+XviD+Ac3+Feel-Free","amp;tr":["udp%3A%2F%2Ftracker.openbittorrent.com%3A80","udp%3A%2F%2Fopen.demonii.com%3A1337","udp%3A%2F%2Ftracker.coppersurfer.tk%3A6969","udp%3A%2F%2Fexodus.desync.com%3A6969"],"infoHash":"c7d24cb710c65648ed3e8e3959e7215b58a12348","infoHashBuffer":{"type":"Buffer","data":[199,210,76,183,16,198,86,72,237,62,142,57,89,231,33,91,88,161,35,72]},"announce":[],"urlList":[]}}